<svg xmlns="http://www.w3.org/2000/svg" viewBox="0 0 991.33 997.31"><title>openseattle</title><polygon points="927.51 747.98 495.67 997.31 63.82 747.98 63.82 249.33 495.67 0 927.51 249.33 927.51 747.98" style="fill:#e6e7e8"/><path d="M417.71,440.3l84.12-329.87L585.94,440.3H417.71ZM512,440H491.68v61.39H512V440Z" transform="translate(-4.54 -1.11)" style="fill:#539442"/><path d="M319.53,525.73l84.12-329.87,84.12,329.87H319.53Zm94.26-.33H393.5v61.39h20.29V525.39Z" transform="translate(-4.54 -1.11)" style="fill:#539442"/><path d="M514.59,525.73L598.7,195.85l84.12,329.87H514.59Zm94.26-.33H588.56v61.39h20.29V525.39Z" transform="translate(-4.54 -1.11)" style="fill:#539442"/><path d="M222.65,608.78l84.12-329.87,84.12,329.87H222.65Zm94.26-.33H296.63v61.39h20.29V608.45Z" transform="translate(-4.54 -1.11)" style="fill:#539442"/><path d="M417.71,608.78l84.12-329.87,84.12,329.87H417.71Zm94.26-.33H491.68v61.39H512V608.45Z" transform="translate(-4.54 -1.11)" style="fill:#539442"/><path d="M612.76,613.54l84.12-329.87L781,613.54H612.76ZM707,613.2H686.74v61.39H707V613.2Z" transform="translate(-4.54 -1.11)" style="fill:#539442"/><path d="M292.08,689.2L209.24,364.34l-83,325.32Q209.19,689.38,292.08,689.2Z" transform="translate(-4.54 -1.11)" style="fill:#539442"/><path d="M487,688.77L404.3,364.34,321.48,689.12Q404.25,688.93,487,688.77Z" transform="translate(-4.54 -1.11)" style="fill:#539442"/><path d="M680.79,688.47L599.35,369.1l-81.5,319.63Q599.32,688.59,680.79,688.47Z" transform="translate(-4.54 -1.11)" style="fill:#539442"/><path d="M875.81,688.3l-81.4-319.2L713,688.44Q794.39,688.35,875.81,688.3Z" transform="translate(-4.54 -1.11)" style="fill:#539442"/><path d="M172.85,689.51L111.72,449.77,69.16,616.68,67.83,690C108.62,689.81,132.06,689.64,172.85,689.51Z" transform="translate(-4.54 -1.11)" style="fill:#539442"/><path d="M367.78,689l-61-239.23L245.69,689.32Q306.73,689.15,367.78,689Z" transform="translate(-4.54 -1.11)" style="fill:#539442"/><path d="M561.53,688.65l-59.7-234.13L442.08,688.84Q501.8,688.73,561.53,688.65Z" transform="translate(-4.54 -1.11)" style="fill:#539442"/><path d="M756.52,688.4L696.88,454.53l-59.67,234Z" transform="translate(-4.54 -1.11)" style="fill:#539442"/><path d="M932.58,690L932.4,613.2,891.94,454.53,832.32,688.34C872.05,688.3,892.84,690,932.58,690Z" transform="translate(-4.54 -1.11)" style="fill:#539442"/><polygon points="193.85 880.05 0 880.05 25.85 801.62 0 723.2 193.85 723.2 193.85 880.05" style="fill:#e18030"/><polygon points="64.09 837.28 193.85 837.28 193.85 880.05 64.09 837.28" style="fill:#d06b2b"/><polygon points="797.48 880.05 991.33 880.05 965.48 801.62 991.33 723.2 797.48 723.2 797.48 880.05" style="fill:#e18030"/><rect x="62.49" y="684.1" width="864.75" height="153.18" style="fill:#f09233"/><polygon points="927.24 837.28 797.48 837.28 797.48 880.05 927.24 837.28" style="fill:#d06b2b"/><path d="M176.58,760.75c0-22.71,14.8-37,35.64-37s35.5,14.3,35.5,37-14.8,37.56-35.5,37.56S176.58,783.57,176.58,760.75Zm64.85,0c0-19.87-11.79-32.43-29.22-32.43s-29.35,12.56-29.35,32.43,11.79,33,29.35,33S241.43,780.73,241.43,760.75Z" transform="translate(-4.54 -1.11)" style="fill:#fff"/><path d="M263.44,725.05H287c19.26,0,30.66,5.24,30.66,20.09,0,14.08-11.53,21-30.66,21H269.46V797h-6V725.05Zm22,36.79c17.69,0,26.07-4.91,26.07-16.7,0-12.12-8.52-15.83-26.07-15.83h-16v32.53h16Z" transform="translate(-4.54 -1.11)" style="fill:#fff"/><path d="M332.35,725.05h47.16v4.37H338.37V756.6H373V761H338.37v31.66h42.45V797H332.35V725.05Z" transform="translate(-4.54 -1.11)" style="fill:#fff"/><path d="M395.49,725.05h6.29l36.29,50.77,9.83,14.3h0.52c-0.39-7-.79-14-0.79-21V725.05h5.63V797H447l-36.29-50.77-9.83-14.3h-0.52c0.39,6.88.79,13.43,0.79,20.42V797h-5.63V725.05Z" transform="translate(-4.54 -1.11)" style="fill:#fff"/><path d="M498.84,779.2c5.44,4.8,12.73,8.08,19.79,8.08,8.45,0,13.19-3.6,13.19-9.17,0-5.9-4.86-7.75-11.8-10.48l-10.3-4.26c-7.52-2.95-15.28-8.52-15.28-19,0-11.35,10.65-20.09,25.34-20.09a34.53,34.53,0,0,1,23.38,9.06l-6.94,8.08a25.26,25.26,0,0,0-16.43-6.11c-7.17,0-11.8,3.17-11.8,8.41,0,5.57,5.79,7.64,12,10l10.18,4c9,3.6,15.28,9,15.28,19.32,0,11.57-10.18,21.18-27.2,21.18a40.17,40.17,0,0,1-27.2-10.48Z" transform="translate(-4.54 -1.11)" style="fill:#fff"/><path d="M578.69,742.08c15.39,0,23.49,10.48,23.49,25.44a25.47,25.47,0,0,1-.58,5.9H565.5c1.16,9.72,7.64,15.18,16.78,15.18a24.74,24.74,0,0,0,13.19-3.93l4.51,7.86a37.36,37.36,0,0,1-19.44,5.79c-15.74,0-28-10.37-28-28.06C552.54,752.78,565.38,742.08,578.69,742.08Zm11.92,23.36c0-8.52-3.82-13.65-11.57-13.65-6.71,0-12.5,4.69-13.66,13.65h25.23Z" transform="translate(-4.54 -1.11)" style="fill:#fff"/><path d="M642.8,762.72c-0.12-5.68-2.66-10.48-10.3-10.48-5.67,0-11,2.4-16,5.24l-4.86-8.41c6.25-3.71,14.23-7,23.26-7,14.23,0,21.18,8.19,21.18,23.15V797H645.23l-1-5.9h-0.35c-5.09,4-10.88,7.21-17.59,7.21-10,0-16.9-6.33-16.9-15.72C609.36,771.13,619.54,765.12,642.8,762.72Zm-12.38,25.77c4.63,0,8.22-2.18,12.38-5.9v-12c-15.39,1.86-20.48,5.68-20.48,11C622.32,786.41,625.68,788.48,630.42,788.48Z" transform="translate(-4.54 -1.11)" style="fill:#fff"/><path d="M672.55,753.33h-8.1v-9.39l8.79-.55,1.62-14.63H686v14.63h14.46v9.94H686v25.55c0,6.33,2.55,9.39,8,9.39a17.12,17.12,0,0,0,5.9-1.2l2.31,9.28a38.22,38.22,0,0,1-11.57,2c-13.19,0-18.05-7.86-18.05-19.43V753.33Z" transform="translate(-4.54 -1.11)" style="fill:#fff"/><path d="M712.59,753.33h-8.1v-9.39l8.79-.55,1.62-14.63H726v14.63h14.46v9.94H726v25.55c0,6.33,2.55,9.39,8,9.39a17.12,17.12,0,0,0,5.9-1.2l2.31,9.28a38.22,38.22,0,0,1-11.57,2c-13.19,0-18.05-7.86-18.05-19.43V753.33Z" transform="translate(-4.54 -1.11)" style="fill:#fff"/><path d="M750.66,719.92H764v64c0,3.06,1.5,4.15,2.89,4.15a8.44,8.44,0,0,0,2.08-.22l1.74,9.39a19.14,19.14,0,0,1-7.06,1.09c-9.49,0-13-5.79-13-15.07V719.92Z" transform="translate(-4.54 -1.11)" style="fill:#fff"/><path d="M802.73,742.08c15.39,0,23.49,10.48,23.49,25.44a25.53,25.53,0,0,1-.58,5.9H789.54c1.16,9.72,7.64,15.18,16.78,15.18a24.74,24.74,0,0,0,13.19-3.93l4.51,7.86a37.36,37.36,0,0,1-19.44,5.79c-15.74,0-28-10.37-28-28.06C776.58,752.78,789.43,742.08,802.73,742.08Zm11.92,23.36c0-8.52-3.82-13.65-11.57-13.65-6.71,0-12.5,4.69-13.66,13.65h25.23Z" transform="translate(-4.54 -1.11)" style="fill:#fff"/><circle cx="452.24" cy="395.08" r="18.05" style="fill:#fff"/><circle cx="541.54" cy="395.08" r="18.05" style="fill:#fff"/><circle cx="329.22" cy="519.09" r="18.05" style="fill:#fff"/><circle cx="205.01" cy="641.72" r="18.05" style="fill:#fff"/><circle cx="296.77" cy="641.72" r="18.05" style="fill:#fff"/><circle cx="452.24" cy="641.72" r="18.05" style="fill:#fff"/><circle cx="541.54" cy="641.72" r="18.05" style="fill:#fff"/><circle cx="699.46" cy="641.72" r="18.05" style="fill:#fff"/><circle cx="786.32" cy="641.72" r="18.05" style="fill:#fff"/><circle cx="419.08" cy="519.09" r="18.05" style="fill:#fff"/><circle cx="573.93" cy="519.09" r="18.05" style="fill:#fff"/><circle cx="664.17" cy="519.09" r="18.05" style="fill:#fff"/><line x1="452.24" y1="395.08" x2="419.08" y2="519.09" style="fill:none;stroke:#fff;stroke-miterlimit:10;stroke-width:4px"/><line x1="329.22" y1="519.09" x2="419.08" y2="519.09" style="fill:none;stroke:#fff;stroke-miterlimit:10;stroke-width:4px"/><line x1="205.01" y1="641.72" x2="329.22" y2="519.09" style="fill:none;stroke:#fff;stroke-miterlimit:10;stroke-width:4px"/><line x1="296.77" y1="641.72" x2="205.01" y2="641.72" style="fill:none;stroke:#fff;stroke-miterlimit:10"/><line x1="419.08" y1="519.09" x2="296.77" y2="641.72" style="fill:none;stroke:#fff;stroke-miterlimit:10;stroke-width:4px"/><line x1="452.24" y1="641.72" x2="329.22" y2="519.09" style="fill:none;stroke:#fff;stroke-miterlimit:10;stroke-width:4px"/><line x1="452.24" y1="395.08" x2="541.54" y2="641.72" style="fill:none;stroke:#fff;stroke-miterlimit:10;stroke-width:4px"/><line x1="541.54" y1="395.08" x2="452.24" y2="641.72" style="fill:none;stroke:#fff;stroke-miterlimit:10;stroke-width:4px"/><line x1="573.93" y1="519.09" x2="541.54" y2="395.08" style="fill:none;stroke:#fff;stroke-miterlimit:10;stroke-width:4px"/><line x1="699.46" y1="641.72" x2="573.93" y2="519.09" style="fill:none;stroke:#fff;stroke-miterlimit:10;stroke-width:4px"/><line x1="541.54" y1="641.72" x2="664.17" y2="519.09" style="fill:none;stroke:#fff;stroke-miterlimit:10;stroke-width:4px"/><line x1="786.32" y1="641.72" x2="699.46" y2="641.72" style="fill:none;stroke:#fff;stroke-miterlimit:10;stroke-width:4px"/><line x1="664.17" y1="519.09" x2="786.32" y2="641.72" style="fill:none;stroke:#fff;stroke-miterlimit:10;stroke-width:4px"/><line x1="664.17" y1="519.09" x2="573.93" y2="519.09" style="fill:none;stroke:#fff;stroke-miterlimit:10;stroke-width:4px"/><path d="M407.21,890.2a5.6,5.6,0,0,1-2.47-.51,4.86,4.86,0,0,1-1.73-1.38,5.87,5.87,0,0,1-1-2.06,9.33,9.33,0,0,1-.33-2.53,11,11,0,0,1,.49-3.33,8.56,8.56,0,0,1,1.41-2.75,6.82,6.82,0,0,1,2.25-1.86,6.38,6.38,0,0,1,3-.69,5.53,5.53,0,0,1,2.17.42,5,5,0,0,1,1.74,1.23,5.68,5.68,0,0,1,1.16,2,8.11,8.11,0,0,1,.42,2.7,11.64,11.64,0,0,1-.47,3.34,8.74,8.74,0,0,1-1.38,2.8,6.84,6.84,0,0,1-2.23,1.92A6.22,6.22,0,0,1,407.21,890.2Zm4.55-8.21q0-.66-0.06-1.36a9.52,9.52,0,0,0-.22-1.34,6.83,6.83,0,0,0-.41-1.21,3.92,3.92,0,0,0-.64-1,2.7,2.7,0,0,0-2.12-.92,3,3,0,0,0-1.74.54,4.38,4.38,0,0,0-1.29,1.48,8,8,0,0,0-.8,2.2,12.52,12.52,0,0,0-.28,2.68q0,0.66.06,1.37a10.07,10.07,0,0,0,.22,1.38,7.85,7.85,0,0,0,.4,1.26,4.09,4.09,0,0,0,.62,1,2.82,2.82,0,0,0,.88.71,2.45,2.45,0,0,0,1.15.26,2.89,2.89,0,0,0,1.35-.31,3.76,3.76,0,0,0,1.07-.83,5.23,5.23,0,0,0,.8-1.2,8.68,8.68,0,0,0,.56-1.44,10.76,10.76,0,0,0,.32-1.53A15,15,0,0,0,411.76,882Z" transform="translate(-4.54 -1.11)" style="fill:#565656"/><path d="M420.71,893.75q0,0.59-.08,1.25a6,6,0,0,1-.16,1.15l1.82-.08v1.19h-5.47v-0.86a1.3,1.3,0,0,0,.94-0.32,1.88,1.88,0,0,0,.49-0.86,6.56,6.56,0,0,0,.21-1.28q0.06-.74.13-1.59,0.13-1.67.27-3.26t0.28-3.06q0.14-1.46.26-2.75t0.22-2.31q0.1-1,.16-1.77t0.06-1.11q0-.28,0-0.56a1.65,1.65,0,0,0-.09-0.49,0.82,0.82,0,0,0-.23-0.35,0.65,0.65,0,0,0-.44-0.13,1.09,1.09,0,0,0-.52.15,1.93,1.93,0,0,0-.55.48,4.3,4.3,0,0,0-.54.86,7.63,7.63,0,0,0-.47,1.29l-0.85-.17a7.09,7.09,0,0,1,.37-1.21,6.08,6.08,0,0,1,.74-1.34,4.48,4.48,0,0,1,1.12-1.09,2.64,2.64,0,0,1,1.52-.44,2.15,2.15,0,0,1,1.08.25,1.84,1.84,0,0,1,.68.66,2.88,2.88,0,0,1,.35,1,6.46,6.46,0,0,1,.1,1.14,11.06,11.06,0,0,1-.14,1.77q-0.14.88-.27,1.54h0.1a19.18,19.18,0,0,1,1.23-3.23,8.21,8.21,0,0,1,1.29-1.92,3.64,3.64,0,0,1,1.32-.93,3.72,3.72,0,0,1,1.3-.25,3.26,3.26,0,0,1,1.73.45,3.71,3.71,0,0,1,1.22,1.21,5.82,5.82,0,0,1,.72,1.78,9.37,9.37,0,0,1,.24,2.16,12.78,12.78,0,0,1-.55,3.86,8.5,8.5,0,0,1-1.62,3,7.23,7.23,0,0,1-2.68,1.95,9.24,9.24,0,0,1-3.69.69,10.54,10.54,0,0,1-1.36-.08Zm0.64-7.63q-0.11.65-.18,1.32T421,888.87a7.86,7.86,0,0,0,.87.25,4.17,4.17,0,0,0,.9.09,4.51,4.51,0,0,0,3.26-1.29,6,6,0,0,0,1.05-1.39,8.93,8.93,0,0,0,.71-1.67,11.08,11.08,0,0,0,.4-1.82,13.5,13.5,0,0,0,.13-1.81,17.75,17.75,0,0,0-.09-1.86,6.86,6.86,0,0,0-.32-1.52,2.52,2.52,0,0,0-.62-1,1.38,1.38,0,0,0-1-.37,1.75,1.75,0,0,0-1,.39,4.88,4.88,0,0,0-1,1.07,10.46,10.46,0,0,0-.94,1.62,19.69,19.69,0,0,0-.82,2q-0.37,1.07-.67,2.25T421.34,886.12Z" transform="translate(-4.54 -1.11)" style="fill:#565656"/><path d="M444.34,878.42a2.78,2.78,0,0,1-.38,1.45,4.16,4.16,0,0,1-1,1.15,7.16,7.16,0,0,1-1.5.89,14.81,14.81,0,0,1-1.8.66,17.63,17.63,0,0,1-1.93.46q-1,.18-1.89.28a8.34,8.34,0,0,0,.81,4.07,2.68,2.68,0,0,0,2.5,1.35,4.15,4.15,0,0,0,1.27-.2,4.81,4.81,0,0,0,1.25-.63,6.26,6.26,0,0,0,1.18-1.08,8.3,8.3,0,0,0,1-1.57l0.95,0.54a9.45,9.45,0,0,1-2.72,3.34,5.84,5.84,0,0,1-3.47,1.07,5.77,5.77,0,0,1-2.39-.45,4.47,4.47,0,0,1-1.67-1.27,5.33,5.33,0,0,1-1-2,9.62,9.62,0,0,1-.32-2.56,12.87,12.87,0,0,1,.19-2.21,10.59,10.59,0,0,1,.58-2.08,9.11,9.11,0,0,1,1-1.82,6.44,6.44,0,0,1,1.36-1.45,6.27,6.27,0,0,1,1.77-1,6.49,6.49,0,0,1,2.17-.35,6.29,6.29,0,0,1,1.49.18,3.88,3.88,0,0,1,1.29.56,2.91,2.91,0,0,1,.91,1A3.25,3.25,0,0,1,444.34,878.42Zm-4.45-2.34a2.86,2.86,0,0,0-1.73.53,4.3,4.3,0,0,0-1.21,1.4,7.73,7.73,0,0,0-.76,2,14.09,14.09,0,0,0-.35,2.27,14.86,14.86,0,0,0,2.24-.48,8.9,8.9,0,0,0,2-.83,4.85,4.85,0,0,0,1.39-1.17,2.37,2.37,0,0,0,.53-1.5,2.87,2.87,0,0,0-.13-0.87,2,2,0,0,0-.38-0.7,1.76,1.76,0,0,0-.64-0.47A2.27,2.27,0,0,0,439.89,876.08Z" transform="translate(-4.54 -1.11)" style="fill:#565656"/><path d="M451.1,888.34q0,0.44,0,.81t0,0.73h-2.43q0-.31,0-0.42,0-.39,0-0.83t0.09-1.11q0.06-.67.18-1.66l0.28-2.51q0.13-1.13.22-1.92t0.15-1.33q0.06-.54.1-0.87t0.06-.57q0-.23,0-0.41t0-.39a4.29,4.29,0,0,0,0-.49,1.32,1.32,0,0,0-.11-0.42,0.72,0.72,0,0,0-.23-0.28,0.68,0.68,0,0,0-.4-0.11,1.1,1.1,0,0,0-.52.15,2.1,2.1,0,0,0-.56.48,4.12,4.12,0,0,0-.56.86,7.24,7.24,0,0,0-.48,1.29l-0.8-.17a7.08,7.08,0,0,1,.37-1.21,6.06,6.06,0,0,1,.74-1.34,4.48,4.48,0,0,1,1.12-1.09,2.64,2.64,0,0,1,1.52-.44,2.08,2.08,0,0,1,1.06.25,1.8,1.8,0,0,1,.66.66,3,3,0,0,1,.34,1,6.43,6.43,0,0,1,.1,1.15,9.59,9.59,0,0,1,0,1q0,0.49-.11,1t-0.15.89q-0.08.42-.14,0.76h0.08a23.1,23.1,0,0,1,1.45-3.26,10,10,0,0,1,1.43-2,4.3,4.3,0,0,1,1.41-1,3.65,3.65,0,0,1,1.4-.29,3.26,3.26,0,0,1,1.47.3,2.6,2.6,0,0,1,1,.82,3.49,3.49,0,0,1,.54,1.2,5.94,5.94,0,0,1,.17,1.43,23.17,23.17,0,0,1-.13,2.46q-0.13,1.26-.3,2.41l-0.3,2.11a11.8,11.8,0,0,0-.13,1.58q0,0.27,0,.52a1.29,1.29,0,0,0,.11.43,0.75,0.75,0,0,0,.24.3,0.68,0.68,0,0,0,.41.11,1.11,1.11,0,0,0,.51-0.15,2,2,0,0,0,.56-0.48,4.36,4.36,0,0,0,.55-0.87,7.18,7.18,0,0,0,.48-1.31l0.82,0.18a7.06,7.06,0,0,1-.37,1.21,5.93,5.93,0,0,1-.74,1.33,4.54,4.54,0,0,1-1.12,1.08,2.64,2.64,0,0,1-1.52.44,3.06,3.06,0,0,1-1.14-.18,1.65,1.65,0,0,1-.72-0.54,2.18,2.18,0,0,1-.37-0.88,6,6,0,0,1-.11-1.19,15.26,15.26,0,0,1,.14-1.91q0.14-1.1.3-2.34t0.3-2.51a22.19,22.19,0,0,0,.14-2.44,3.12,3.12,0,0,0-.06-0.56,1.89,1.89,0,0,0-.21-0.57,1.34,1.34,0,0,0-.41-0.45,1.17,1.17,0,0,0-.68-0.18,2.18,2.18,0,0,0-1.35.54,6.82,6.82,0,0,0-1.32,1.45,13.59,13.59,0,0,0-1.19,2.11,20.83,20.83,0,0,0-1,2.52,21.78,21.78,0,0,0-.65,2.68A14.87,14.87,0,0,0,451.1,888.34Z" transform="translate(-4.54 -1.11)" style="fill:#565656"/><path d="M466.73,887.8a1.55,1.55,0,0,0,.35.56,2.15,2.15,0,0,0,.57.42,3.22,3.22,0,0,0,.71.26,3.28,3.28,0,0,0,.78.09,3.36,3.36,0,0,0,2.34-.71,2.63,2.63,0,0,0,.78-2,2,2,0,0,0-.52-1.32,6.77,6.77,0,0,0-1.3-1.12q-0.78-.53-1.69-1a17,17,0,0,1-1.69-1.08,6.11,6.11,0,0,1-1.3-1.26,2.53,2.53,0,0,1-.52-1.56,3.29,3.29,0,0,1,.36-1.5,3.85,3.85,0,0,1,1-1.25,5,5,0,0,1,1.57-.85,6.36,6.36,0,0,1,2-.31,6.17,6.17,0,0,1,1.59.2,5.16,5.16,0,0,1,1.37.57,3.12,3.12,0,0,1,1,.89,2,2,0,0,1,.36,1.17,1.35,1.35,0,0,1-.35,1,1.17,1.17,0,0,1-.87.35,1.07,1.07,0,0,1-.84-0.35,1.17,1.17,0,0,1-.32-0.81,1.86,1.86,0,0,1,.06-0.45,1.56,1.56,0,0,1,.21-0.47,1.5,1.5,0,0,0-.72-0.81,3,3,0,0,0-1.54-.33,2.93,2.93,0,0,0-1,.16,2.84,2.84,0,0,0-.85.47,2.41,2.41,0,0,0-.61.73,1.9,1.9,0,0,0-.23.93,1.68,1.68,0,0,0,.3,1,3.82,3.82,0,0,0,.81.84,9.78,9.78,0,0,0,1.14.77l1.31,0.77q0.66,0.4,1.31.83a7.45,7.45,0,0,1,1.14,1,4.45,4.45,0,0,1,.8,1.13,3.06,3.06,0,0,1,.3,1.38,3.64,3.64,0,0,1-.4,1.69,4,4,0,0,1-1.12,1.33,5.41,5.41,0,0,1-1.72.88,7.57,7.57,0,0,1-3.92.11,5.34,5.34,0,0,1-1.49-.59,3.28,3.28,0,0,1-1-1,2.3,2.3,0,0,1-.4-1.33,1.47,1.47,0,0,1,.36-1,1.16,1.16,0,0,1,.9-0.4,1,1,0,0,1,.88.38,1.35,1.35,0,0,1,.3.85,2,2,0,0,1,0,.43A1.44,1.44,0,0,1,466.73,887.8Z" transform="translate(-4.54 -1.11)" style="fill:#565656"/><path d="M488.27,878.42a2.78,2.78,0,0,1-.38,1.45,4.15,4.15,0,0,1-1,1.15,7.16,7.16,0,0,1-1.5.89,14.83,14.83,0,0,1-1.8.66,17.63,17.63,0,0,1-1.93.46q-1,.18-1.89.28a8.34,8.34,0,0,0,.8,4.07,2.69,2.69,0,0,0,2.5,1.35,4.15,4.15,0,0,0,1.27-.2,4.81,4.81,0,0,0,1.25-.63,6.23,6.23,0,0,0,1.18-1.08,8.32,8.32,0,0,0,1-1.57l0.95,0.54a9.45,9.45,0,0,1-2.72,3.34,5.84,5.84,0,0,1-3.47,1.07,5.77,5.77,0,0,1-2.39-.45,4.48,4.48,0,0,1-1.67-1.27,5.33,5.33,0,0,1-1-2,9.62,9.62,0,0,1-.32-2.56,12.87,12.87,0,0,1,.19-2.21,10.59,10.59,0,0,1,.58-2.08,9.14,9.14,0,0,1,1-1.82,6.46,6.46,0,0,1,1.36-1.45,6.27,6.27,0,0,1,1.77-1,6.49,6.49,0,0,1,2.17-.35,6.29,6.29,0,0,1,1.49.18,3.88,3.88,0,0,1,1.29.56,2.91,2.91,0,0,1,.91,1A3.23,3.23,0,0,1,488.27,878.42Zm-4.45-2.34a2.86,2.86,0,0,0-1.73.53,4.3,4.3,0,0,0-1.21,1.4,7.75,7.75,0,0,0-.76,2,14.15,14.15,0,0,0-.35,2.27,14.86,14.86,0,0,0,2.24-.48,8.9,8.9,0,0,0,2-.83,4.84,4.84,0,0,0,1.39-1.17,2.36,2.36,0,0,0,.53-1.5,2.9,2.9,0,0,0-.13-0.87,2,2,0,0,0-.38-0.7,1.76,1.76,0,0,0-.64-0.47A2.27,2.27,0,0,0,483.82,876.08Z" transform="translate(-4.54 -1.11)" style="fill:#565656"/><path d="M503.24,875.58q-0.24,1.78-.47,3.56t-0.41,3.34q-0.18,1.56-.3,2.79T502,887.15q0,0.28,0,.56a1.66,1.66,0,0,0,.1.51,0.89,0.89,0,0,0,.25.37,0.68,0.68,0,0,0,.46.14,1.1,1.1,0,0,0,.52-0.15,2,2,0,0,0,.56-0.48,4.3,4.3,0,0,0,.55-0.86,7.26,7.26,0,0,0,.48-1.29l0.82,0.17a7.1,7.1,0,0,1-.37,1.21,6.07,6.07,0,0,1-.74,1.34,4.42,4.42,0,0,1-1.13,1.09,2.67,2.67,0,0,1-1.52.44,2.33,2.33,0,0,1-1-.19,1.72,1.72,0,0,1-.66-0.53,2.17,2.17,0,0,1-.37-0.82,4.65,4.65,0,0,1-.11-1.07,12,12,0,0,1,.15-1.79q0.15-1,.37-2.08h-0.08a19.81,19.81,0,0,1-.94,2.46,12.7,12.7,0,0,1-1,1.75,6.38,6.38,0,0,1-1,1.17,4.92,4.92,0,0,1-1,.69,3.35,3.35,0,0,1-.92.33,4.53,4.53,0,0,1-.84.08,3.78,3.78,0,0,1-1.45-.28A3,3,0,0,1,492,889a4.37,4.37,0,0,1-.78-1.56,8.34,8.34,0,0,1-.28-2.33,13.73,13.73,0,0,1,.53-3.86A9.7,9.7,0,0,1,493,878.1a7.65,7.65,0,0,1,2.63-2.2,8,8,0,0,1,3.7-.81,15.54,15.54,0,0,1,1.91.13A16.06,16.06,0,0,1,503.24,875.58Zm-2.53.9a4.23,4.23,0,0,0-1-.27,8.46,8.46,0,0,0-1.24-.08,3.67,3.67,0,0,0-2.28.73,5.68,5.68,0,0,0-1.6,1.94,10.36,10.36,0,0,0-.94,2.74,15.71,15.71,0,0,0-.31,3.13,14.61,14.61,0,0,0,.09,1.7,5.33,5.33,0,0,0,.32,1.35,2.32,2.32,0,0,0,.58.88,1.28,1.28,0,0,0,.89.32,2.06,2.06,0,0,0,1.33-.56,6.62,6.62,0,0,0,1.26-1.51,14.94,14.94,0,0,0,1.13-2.2,22.18,22.18,0,0,0,.92-2.64,24.67,24.67,0,0,0,.61-2.81A18.75,18.75,0,0,0,500.71,876.49Z" transform="translate(-4.54 -1.11)" style="fill:#565656"/><path d="M506.43,875.41a3.81,3.81,0,0,0,2.83-1.06,6.93,6.93,0,0,0,1.62-3H512l-0.52,4.08h4.6L516,876.49l-4.63.07q-0.13,1.22-.28,2.51t-0.27,2.56q-0.12,1.27-.2,2.44t-0.08,2.14q0,0.42,0,.87a3.06,3.06,0,0,0,.17.81,1.42,1.42,0,0,0,.4.6,1.1,1.1,0,0,0,.75.23,2.79,2.79,0,0,0,.51-0.06,2.19,2.19,0,0,0,.66-0.26,3.57,3.57,0,0,0,.76-0.61,5.74,5.74,0,0,0,.8-1.1l0.75,0.49a9.9,9.9,0,0,1-.87,1.31,5.33,5.33,0,0,1-.95.94,3.68,3.68,0,0,1-1.08.57,4,4,0,0,1-1.27.19,3.31,3.31,0,0,1-1.43-.28,2.4,2.4,0,0,1-.92-0.75,3.1,3.1,0,0,1-.5-1.1,5.35,5.35,0,0,1-.16-1.3q0-.82,0-1.93t0.14-2.42q0.09-1.31.23-2.79t0.33-3l-2.57,0Z" transform="translate(-4.54 -1.11)" style="fill:#565656"/><path d="M517,875.41a3.81,3.81,0,0,0,2.83-1.06,6.93,6.93,0,0,0,1.62-3h1.1L522,875.41h4.6l-0.08,1.07-4.63.07q-0.13,1.22-.28,2.51t-0.27,2.56q-0.12,1.27-.2,2.44T521,886.21q0,0.42,0,.87a3.06,3.06,0,0,0,.17.81,1.42,1.42,0,0,0,.4.6,1.1,1.1,0,0,0,.75.23,2.79,2.79,0,0,0,.51-0.06,2.19,2.19,0,0,0,.66-0.26,3.57,3.57,0,0,0,.76-0.61,5.74,5.74,0,0,0,.8-1.1l0.75,0.49a9.9,9.9,0,0,1-.87,1.31,5.33,5.33,0,0,1-.95.94A3.68,3.68,0,0,1,523,890a4,4,0,0,1-1.27.19,3.31,3.31,0,0,1-1.43-.28,2.4,2.4,0,0,1-.92-0.75,3.1,3.1,0,0,1-.5-1.1,5.35,5.35,0,0,1-.16-1.3q0-.82,0-1.93t0.14-2.42q0.09-1.31.23-2.79t0.33-3l-2.57,0Z" transform="translate(-4.54 -1.11)" style="fill:#565656"/><path d="M530.14,871.42q0.06-.38.1-0.61l0.07-.4,0-.28,0-.27-2.06.11,0.13-1.14a15.74,15.74,0,0,0,1.58-.06,7,7,0,0,0,1-.17,2.56,2.56,0,0,0,.65-0.25,2.38,2.38,0,0,0,.41-0.3H533q-0.08.54-.2,1.19t-0.22,1.32l-0.21,1.29q-0.1.63-.16,1.11-0.13,1-.28,2.28t-0.29,2.62q-0.14,1.36-.28,2.73t-0.23,2.62q-0.1,1.25-.16,2.29t-0.06,1.74q0,0.28,0,.56a1.85,1.85,0,0,0,.1.49,0.79,0.79,0,0,0,.24.35,0.67,0.67,0,0,0,.44.13,1.12,1.12,0,0,0,.51-0.15,1.9,1.9,0,0,0,.56-0.48,4.6,4.6,0,0,0,.54-0.87,7.15,7.15,0,0,0,.48-1.31l0.83,0.18a7.12,7.12,0,0,1-.37,1.21,6.06,6.06,0,0,1-.73,1.33,4.38,4.38,0,0,1-1.12,1.08,2.68,2.68,0,0,1-1.53.44,2.2,2.2,0,0,1-1.79-.64,3,3,0,0,1-.53-1.94q0-.68.07-1.79t0.19-2.51q0.12-1.39.28-3t0.34-3.14q0.18-1.57.35-3.07T530.14,871.42Z" transform="translate(-4.54 -1.11)" style="fill:#565656"/><path d="M547.16,878.42a2.78,2.78,0,0,1-.38,1.45,4.15,4.15,0,0,1-1,1.15,7.16,7.16,0,0,1-1.5.89,14.83,14.83,0,0,1-1.8.66,17.63,17.63,0,0,1-1.93.46q-1,.18-1.89.28a8.34,8.34,0,0,0,.8,4.07,2.69,2.69,0,0,0,2.5,1.35,4.15,4.15,0,0,0,1.27-.2,4.81,4.81,0,0,0,1.25-.63,6.23,6.23,0,0,0,1.18-1.08,8.32,8.32,0,0,0,1-1.57l0.95,0.54a9.45,9.45,0,0,1-2.72,3.34,5.84,5.84,0,0,1-3.47,1.07,5.77,5.77,0,0,1-2.39-.45,4.47,4.47,0,0,1-1.67-1.27,5.34,5.34,0,0,1-1-2,9.62,9.62,0,0,1-.32-2.56,12.87,12.87,0,0,1,.19-2.21,10.56,10.56,0,0,1,.58-2.08,9.07,9.07,0,0,1,1-1.82,6.43,6.43,0,0,1,1.36-1.45,6.27,6.27,0,0,1,1.77-1,6.49,6.49,0,0,1,2.17-.35,6.29,6.29,0,0,1,1.49.18,3.88,3.88,0,0,1,1.29.56,2.91,2.91,0,0,1,.91,1A3.23,3.23,0,0,1,547.16,878.42Zm-4.45-2.34a2.86,2.86,0,0,0-1.73.53,4.3,4.3,0,0,0-1.21,1.4,7.75,7.75,0,0,0-.76,2,14.15,14.15,0,0,0-.35,2.27,14.86,14.86,0,0,0,2.24-.48,8.9,8.9,0,0,0,2-.83,4.84,4.84,0,0,0,1.39-1.17,2.36,2.36,0,0,0,.53-1.5,2.9,2.9,0,0,0-.13-0.87,2,2,0,0,0-.38-0.7,1.76,1.76,0,0,0-.64-0.47A2.27,2.27,0,0,0,542.71,876.08Z" transform="translate(-4.54 -1.11)" style="fill:#565656"/><path d="M553.26,888.52a2,2,0,0,1-.16.72,1.85,1.85,0,0,1-.39.58,1.9,1.9,0,0,1-.54.38,1.48,1.48,0,0,1-.63.14,1.39,1.39,0,0,1-.61-0.13,1.59,1.59,0,0,1-.5-0.37,1.82,1.82,0,0,1-.34-0.55,1.84,1.84,0,0,1-.13-0.69,1.87,1.87,0,0,1,.15-0.74,2,2,0,0,1,.4-0.61,1.9,1.9,0,0,1,.58-0.41,1.59,1.59,0,0,1,.66-0.15,1.34,1.34,0,0,1,1.09.49,1.86,1.86,0,0,1,.41,1.23v0.1Z" transform="translate(-4.54 -1.11)" style="fill:#565656"/><path d="M561.42,890.2a5.59,5.59,0,0,1-2.47-.51,4.85,4.85,0,0,1-1.73-1.38,5.88,5.88,0,0,1-1-2.06,9.37,9.37,0,0,1-.33-2.53,11,11,0,0,1,.5-3.33,8.55,8.55,0,0,1,1.41-2.75,6.82,6.82,0,0,1,2.25-1.86,6.38,6.38,0,0,1,3-.69,5.54,5.54,0,0,1,2.17.42,5,5,0,0,1,1.74,1.23,5.69,5.69,0,0,1,1.16,2,8.11,8.11,0,0,1,.42,2.7,11.64,11.64,0,0,1-.47,3.34,8.73,8.73,0,0,1-1.38,2.8,6.84,6.84,0,0,1-2.23,1.92A6.22,6.22,0,0,1,561.42,890.2ZM566,882q0-.66-0.06-1.36a9.45,9.45,0,0,0-.22-1.34,6.87,6.87,0,0,0-.41-1.21,3.94,3.94,0,0,0-.64-1,2.7,2.7,0,0,0-2.12-.92,3,3,0,0,0-1.74.54,4.38,4.38,0,0,0-1.29,1.48,8,8,0,0,0-.8,2.2,12.52,12.52,0,0,0-.28,2.68q0,0.66.06,1.37a10.07,10.07,0,0,0,.22,1.38,7.9,7.9,0,0,0,.4,1.26,4.09,4.09,0,0,0,.62,1,2.82,2.82,0,0,0,.88.71,2.45,2.45,0,0,0,1.15.26,2.9,2.9,0,0,0,1.35-.31,3.76,3.76,0,0,0,1.07-.83,5.24,5.24,0,0,0,.81-1.2,8.77,8.77,0,0,0,.56-1.44,10.83,10.83,0,0,0,.33-1.53A14.91,14.91,0,0,0,566,882Z" transform="translate(-4.54 -1.11)" style="fill:#565656"/><path d="M580.41,877l-0.16,0h-0.15a1.88,1.88,0,0,0-1.26.56,6.57,6.57,0,0,0-1.17,1.48,13.63,13.63,0,0,0-1,2.13,22.17,22.17,0,0,0-.8,2.51,25.13,25.13,0,0,0-.52,2.61,16.87,16.87,0,0,0-.19,2.42V889c0,0.1,0,.2,0,0.29s0,0.18,0,.27,0,0.2,0,.32h-2.4c0-.21,0-0.35,0-0.42,0-.25,0-0.53,0-0.84s0-.69,0-1.15,0.07-1,.13-1.71,0.15-1.53.26-2.55q0.13-1.13.21-1.9t0.15-1.3q0.06-.52.11-0.84t0.06-.54c0-.15,0-0.27,0-0.39s0-.24,0-0.4a3.74,3.74,0,0,0,0-.48,1.36,1.36,0,0,0-.11-0.41,0.69,0.69,0,0,0-.24-0.29,0.71,0.71,0,0,0-.41-0.11,1.09,1.09,0,0,0-.51.15,2.11,2.11,0,0,0-.57.48,4.1,4.1,0,0,0-.56.86,7.28,7.28,0,0,0-.48,1.29l-0.8-.17a7,7,0,0,1,.37-1.21,6.08,6.08,0,0,1,.74-1.34,4.5,4.5,0,0,1,1.12-1.09,2.64,2.64,0,0,1,1.52-.44,2.29,2.29,0,0,1,1,.2,1.63,1.63,0,0,1,.66.56,2.46,2.46,0,0,1,.35.89,5.79,5.79,0,0,1,.11,1.16,12.93,12.93,0,0,1-.11,1.63q-0.11.88-.31,1.87h0.08a20.1,20.1,0,0,1,1.3-3.1,9,9,0,0,1,1.35-1.94,4.08,4.08,0,0,1,1.39-1,3.78,3.78,0,0,1,1.41-.28,2.59,2.59,0,0,1,.8.12,2,2,0,0,1,.64.34,1.56,1.56,0,0,1,.43.53,1.53,1.53,0,0,1,.16.69,1.48,1.48,0,0,1-.09.51,1.3,1.3,0,0,1-.68.76,1.26,1.26,0,0,1-.56.12,1.37,1.37,0,0,1-.9-0.3A1.31,1.31,0,0,1,580.41,877Z" transform="translate(-4.54 -1.11)" style="fill:#565656"/><path d="M587.28,897.71a7.35,7.35,0,0,1-.8,0,7.51,7.51,0,0,1-.92-0.16,6.46,6.46,0,0,1-.93-0.3,3.66,3.66,0,0,1-.81-0.45,2.27,2.27,0,0,1-.59-0.64,1.67,1.67,0,0,1-.24-0.85,1.53,1.53,0,0,1,.11-0.56,1.64,1.64,0,0,1,.28-0.47,1.22,1.22,0,0,1,.42-0.32,1.29,1.29,0,0,1,.54-0.11,1.4,1.4,0,0,1,.92.32,1.22,1.22,0,0,1,.4,1,1.72,1.72,0,0,1-.18.75,1.29,1.29,0,0,0,.37.38,2.18,2.18,0,0,0,.5.25,3,3,0,0,0,.56.14,3.84,3.84,0,0,0,.56,0,4.16,4.16,0,0,0,1.79-.36,3.85,3.85,0,0,0,1.3-1,5.6,5.6,0,0,0,.9-1.49,11.49,11.49,0,0,0,.59-1.85,19.4,19.4,0,0,0,.35-2.07q0.13-1.08.23-2.17t0.18-2.12q0.08-1,.23-1.93h-0.1a23.07,23.07,0,0,1-.84,2.42,12.28,12.28,0,0,1-.88,1.74,6.7,6.7,0,0,1-.9,1.17,4.15,4.15,0,0,1-.91.71,3.18,3.18,0,0,1-.91.35,4.47,4.47,0,0,1-.89.09,3.45,3.45,0,0,1-1.75-.42,3.51,3.51,0,0,1-1.21-1.18,5.63,5.63,0,0,1-.71-1.78,10.09,10.09,0,0,1-.23-2.24,12.71,12.71,0,0,1,.5-3.58,8.82,8.82,0,0,1,1.54-3,7.55,7.55,0,0,1,2.63-2.1,8.42,8.42,0,0,1,3.76-.78q0.48,0,1,0t1,0.1q0.49,0.06.92,0.16a7,7,0,0,1,.78.2q-0.23,3.53-.55,7.09t-0.58,6.79a13.57,13.57,0,0,1-.75,3.65,7.72,7.72,0,0,1-1.53,2.57,5.93,5.93,0,0,1-2.24,1.52A7.92,7.92,0,0,1,587.28,897.71Zm6.3-21.2a3.16,3.16,0,0,0-.88-0.29,5.58,5.58,0,0,0-1-.09,4.6,4.6,0,0,0-1.89.37,4.83,4.83,0,0,0-1.45,1,5.72,5.72,0,0,0-1,1.42,9.25,9.25,0,0,0-.69,1.69,11.77,11.77,0,0,0-.38,1.79,13,13,0,0,0-.12,1.71,15.56,15.56,0,0,0,.11,1.87,6.27,6.27,0,0,0,.35,1.5,2.64,2.64,0,0,0,.64,1,1.4,1.4,0,0,0,1,.37,2,2,0,0,0,1.33-.56,6.23,6.23,0,0,0,1.22-1.53,14.89,14.89,0,0,0,1.06-2.21,25.09,25.09,0,0,0,.85-2.62q0.37-1.37.6-2.76A24.55,24.55,0,0,0,593.58,876.52Z" transform="translate(-4.54 -1.11)" style="fill:#565656"/><path d="M454.37,919.16a2.12,2.12,0,0,1-.29,1.1,3.16,3.16,0,0,1-.78.88,5.46,5.46,0,0,1-1.14.68,11.27,11.27,0,0,1-1.37.5,13.34,13.34,0,0,1-1.47.35q-0.75.13-1.43,0.21a6.34,6.34,0,0,0,.61,3.1,2,2,0,0,0,1.9,1,3.15,3.15,0,0,0,1-.16,3.64,3.64,0,0,0,1-.48,4.77,4.77,0,0,0,.9-0.82,6.32,6.32,0,0,0,.79-1.19l0.72,0.41a7.19,7.19,0,0,1-2.07,2.54,4.44,4.44,0,0,1-2.64.81,4.39,4.39,0,0,1-1.82-.34,3.4,3.4,0,0,1-1.27-1,4.06,4.06,0,0,1-.75-1.5,7.32,7.32,0,0,1-.24-1.95,9.78,9.78,0,0,1,.15-1.68,8,8,0,0,1,.44-1.58,6.9,6.9,0,0,1,.74-1.39,4.9,4.9,0,0,1,1-1.1,4.77,4.77,0,0,1,1.34-.73,4.93,4.93,0,0,1,1.65-.26,4.8,4.8,0,0,1,1.13.13,3,3,0,0,1,1,.43,2.22,2.22,0,0,1,.69.78A2.47,2.47,0,0,1,454.37,919.16ZM451,917.38a2.17,2.17,0,0,0-1.32.4,3.26,3.26,0,0,0-.92,1.06,5.87,5.87,0,0,0-.57,1.51,10.72,10.72,0,0,0-.27,1.73,11.28,11.28,0,0,0,1.7-.37,6.78,6.78,0,0,0,1.49-.63,3.69,3.69,0,0,0,1.06-.89,1.8,1.8,0,0,0,.4-1.14,2.18,2.18,0,0,0-.1-0.66,1.5,1.5,0,0,0-.29-0.53,1.34,1.34,0,0,0-.49-0.35A1.72,1.72,0,0,0,451,917.38Z" transform="translate(-4.54 -1.11)" style="fill:#565656"/><path d="M461,926.3a1.17,1.17,0,0,0,.27.42,1.63,1.63,0,0,0,.44.32,2.43,2.43,0,0,0,.54.2,2.5,2.5,0,0,0,.59.07,2.56,2.56,0,0,0,1.78-.54,2,2,0,0,0,.59-1.55,1.48,1.48,0,0,0-.39-1,5.15,5.15,0,0,0-1-.85q-0.6-.4-1.28-0.79a12.9,12.9,0,0,1-1.28-.82,4.65,4.65,0,0,1-1-1,1.92,1.92,0,0,1-.39-1.19,2.51,2.51,0,0,1,.27-1.14,2.93,2.93,0,0,1,.77-1,3.8,3.8,0,0,1,1.2-.64,4.85,4.85,0,0,1,1.56-.24,4.7,4.7,0,0,1,1.21.16,3.93,3.93,0,0,1,1,.44,2.39,2.39,0,0,1,.73.68,1.54,1.54,0,0,1,.27.89,1,1,0,0,1-.26.75,0.89,0.89,0,0,1-.66.27,0.82,0.82,0,0,1-.64-0.27,0.89,0.89,0,0,1-.24-0.61,1.41,1.41,0,0,1,0-.34,1.18,1.18,0,0,1,.16-0.35,1.14,1.14,0,0,0-.55-0.62,2.31,2.31,0,0,0-1.17-.25,2.23,2.23,0,0,0-.73.12,2.16,2.16,0,0,0-.65.35,1.83,1.83,0,0,0-.47.55,1.45,1.45,0,0,0-.18.71,1.28,1.28,0,0,0,.23.74,2.91,2.91,0,0,0,.61.64,7.38,7.38,0,0,0,.87.59l1,0.59q0.5,0.3,1,.63a5.66,5.66,0,0,1,.87.73,3.39,3.39,0,0,1,.61.86,2.33,2.33,0,0,1,.23,1,2.77,2.77,0,0,1-.3,1.28,3.06,3.06,0,0,1-.85,1,4.11,4.11,0,0,1-1.31.67,5.76,5.76,0,0,1-3,.09,4,4,0,0,1-1.13-.45,2.49,2.49,0,0,1-.79-0.74,1.75,1.75,0,0,1-.3-1,1.12,1.12,0,0,1,.27-0.78,0.89,0.89,0,0,1,.68-0.3,0.79,0.79,0,0,1,.67.29,1,1,0,0,1,.23.64,1.49,1.49,0,0,1,0,.33A1.1,1.1,0,0,1,461,926.3Z" transform="translate(-4.54 -1.11)" style="fill:#565656"/><path d="M471.7,916.88a2.9,2.9,0,0,0,2.15-.81,5.27,5.27,0,0,0,1.23-2.3h0.84l-0.4,3.1H479l-0.06.82-3.52.05q-0.1.93-.21,1.91t-0.2,1.95q-0.09,1-.16,1.86t-0.06,1.63q0,0.32,0,.66a2.32,2.32,0,0,0,.13.62,1.08,1.08,0,0,0,.31.46,0.84,0.84,0,0,0,.57.18,2.11,2.11,0,0,0,.39,0,1.65,1.65,0,0,0,.5-0.2,2.72,2.72,0,0,0,.57-0.47,4.42,4.42,0,0,0,.61-0.84l0.57,0.38a7.56,7.56,0,0,1-.66,1,4.11,4.11,0,0,1-.72.71,2.8,2.8,0,0,1-.82.44,3.08,3.08,0,0,1-1,.15,2.52,2.52,0,0,1-1.08-.21,1.82,1.82,0,0,1-.7-0.57,2.36,2.36,0,0,1-.38-0.83,4.06,4.06,0,0,1-.12-1q0-.62,0-1.47t0.11-1.84q0.07-1,.18-2.12t0.25-2.32l-2,0Z" transform="translate(-4.54 -1.11)" style="fill:#565656"/><path d="M485.68,926.84a1.5,1.5,0,0,1-.12.55,1.43,1.43,0,0,1-.3.44,1.46,1.46,0,0,1-.41.29,1.13,1.13,0,0,1-.48.11,1.07,1.07,0,0,1-.46-0.1,1.2,1.2,0,0,1-.38-0.28,1.4,1.4,0,0,1-.35-0.94,1.44,1.44,0,0,1,.11-0.56,1.53,1.53,0,0,1,.31-0.46,1.45,1.45,0,0,1,.44-0.31,1.21,1.21,0,0,1,.5-0.11,1,1,0,0,1,.83.38,1.42,1.42,0,0,1,.31.93v0.08Z" transform="translate(-4.54 -1.11)" style="fill:#565656"/><path d="M500.63,915.43a2.34,2.34,0,0,1,.32-1.11,3.55,3.55,0,0,1,.93-1.07,5.17,5.17,0,0,1,1.5-.81,6,6,0,0,1,2-.32,7,7,0,0,1,1.62.19,3.89,3.89,0,0,1,1.39.62,3.2,3.2,0,0,1,1,1.13,3.71,3.71,0,0,1,.37,1.73,4.19,4.19,0,0,1-.21,1.25,5.63,5.63,0,0,1-.73,1.43,11.83,11.83,0,0,1-1.39,1.65A20.88,20.88,0,0,1,505.2,922a21.86,21.86,0,0,0-2.55,2.23,4.49,4.49,0,0,0-1.2,2l5.12,0.14a8.2,8.2,0,0,0,1-.05,2.24,2.24,0,0,0,.77-0.22,1.27,1.27,0,0,0,.51-0.47,1.67,1.67,0,0,0,.21-0.81h0.67l-0.29,3h-9.52a5.37,5.37,0,0,1,.46-2.06,7.37,7.37,0,0,1,1.06-1.68,13.37,13.37,0,0,1,1.47-1.49l1.69-1.49a13.58,13.58,0,0,0,1.27-1.29,9.92,9.92,0,0,0,1-1.31,6.27,6.27,0,0,0,.6-1.28,3.83,3.83,0,0,0,.21-1.21,5.06,5.06,0,0,0-.13-1.18,2.74,2.74,0,0,0-.44-1,2.14,2.14,0,0,0-.8-0.67A2.79,2.79,0,0,0,505,913a3.07,3.07,0,0,0-.87.12,3.31,3.31,0,0,0-.77.33,2.66,2.66,0,0,0-.61.49,2.21,2.21,0,0,0-.4.6,1.07,1.07,0,0,1,.28.49,2,2,0,0,1,.06.48,1,1,0,0,1-.08.38,1,1,0,0,1-.21.33,1.05,1.05,0,0,1-.32.23,1,1,0,0,1-.42.09,1,1,0,0,1-.75-0.29A1.07,1.07,0,0,1,500.63,915.43Z" transform="translate(-4.54 -1.11)" style="fill:#565656"/><path d="M515.13,921.12q0-.47,0-1.17a13.87,13.87,0,0,1,.21-1.65,11.75,11.75,0,0,1,.49-1.85,9.43,9.43,0,0,1,.78-1.68,6.25,6.25,0,0,1,1.1-1.37,4.86,4.86,0,0,1,1.44-.93,5,5,0,0,1,3.52,0,4.26,4.26,0,0,1,1.32.82,4.79,4.79,0,0,1,1,1.23,7.78,7.78,0,0,1,.63,1.52,10.13,10.13,0,0,1,.35,1.7,14.65,14.65,0,0,1,.11,1.76,14.9,14.9,0,0,1-.13,2,12.89,12.89,0,0,1-.42,2,10.42,10.42,0,0,1-.75,1.85,6.56,6.56,0,0,1-1.1,1.54,4.88,4.88,0,0,1-1.49,1.05,4.52,4.52,0,0,1-1.91.39,5,5,0,0,1-1.77-.29,4.32,4.32,0,0,1-1.34-.79,4.49,4.49,0,0,1-1-1.19,7.5,7.5,0,0,1-.63-1.48,9.53,9.53,0,0,1-.34-1.65A14.7,14.7,0,0,1,515.13,921.12Zm2.12-.18q0,0.73.06,1.49a12.86,12.86,0,0,0,.2,1.47,9,9,0,0,0,.37,1.35,4.37,4.37,0,0,0,.58,1.1,2.67,2.67,0,0,0,.82.74,2.15,2.15,0,0,0,1.1.27,2.24,2.24,0,0,0,1.25-.35,3.3,3.3,0,0,0,.95-1,5.87,5.87,0,0,0,.67-1.41,12.22,12.22,0,0,0,.43-1.7,17.69,17.69,0,0,0,.23-1.83q0.07-.93.07-1.8t-0.06-1.58a13.54,13.54,0,0,0-.19-1.49,8.3,8.3,0,0,0-.36-1.3,4.18,4.18,0,0,0-.54-1,2.39,2.39,0,0,0-.76-0.69,2,2,0,0,0-1-.25,2.32,2.32,0,0,0-1.13.28,3.17,3.17,0,0,0-.91.76,5.08,5.08,0,0,0-.7,1.14,9.27,9.27,0,0,0-.51,1.41,13.24,13.24,0,0,0-.33,1.58q-0.12.83-.16,1.52T517.24,920.94Z" transform="translate(-4.54 -1.11)" style="fill:#565656"/><path d="M535.2,925.49c0,0.29,0,.56,0,0.82a4,4,0,0,1-.1.7l1.85-.09,0,1h-5.46l0-.72a2.45,2.45,0,0,0,1-.2,1.57,1.57,0,0,0,.62-0.51,2.28,2.28,0,0,0,.34-0.77,5.11,5.11,0,0,0,.13-1l0.48-10.4h0l-2.69,1.69-0.4-.64,4.29-3.18h0.75Z" transform="translate(-4.54 -1.11)" style="fill:#565656"/><path d="M543.48,925.86a1.42,1.42,0,0,0,.35.64,2.12,2.12,0,0,0,.61.44,3.25,3.25,0,0,0,.78.26,4.31,4.31,0,0,0,.86.09,4.1,4.1,0,0,0,1.51-.26,3.18,3.18,0,0,0,1.14-.75,3.29,3.29,0,0,0,.72-1.18,4.49,4.49,0,0,0,.25-1.55,6.26,6.26,0,0,0,0-.7,3.87,3.87,0,0,0-.16-0.75,3.27,3.27,0,0,0-.33-0.71,2.25,2.25,0,0,0-.55-0.61,2.68,2.68,0,0,0-.82-0.42,3.65,3.65,0,0,0-1.12-.16h-0.78l-0.67,0,0.05-1h0.9a3.41,3.41,0,0,0,1.15-.18,3,3,0,0,0,.85-0.46,2.69,2.69,0,0,0,.6-0.65,3.72,3.72,0,0,0,.38-0.75,4.22,4.22,0,0,0,.26-1.4,4.79,4.79,0,0,0-.12-1.13,2.33,2.33,0,0,0-.42-0.9,2,2,0,0,0-.79-0.6,3.07,3.07,0,0,0-1.23-.21,3,3,0,0,0-1,.16,3.45,3.45,0,0,0-.82.4,2.62,2.62,0,0,0-.6.54,1.6,1.6,0,0,0-.31.57,1,1,0,0,1,.23.43,1.85,1.85,0,0,1,.05.42,0.92,0.92,0,0,1-.07.35,0.88,0.88,0,0,1-.2.3,1,1,0,0,1-.69.28,1,1,0,0,1-.69-0.27,1,1,0,0,1-.28-0.75,2.34,2.34,0,0,1,.31-1.07,3.61,3.61,0,0,1,.9-1.07,5.12,5.12,0,0,1,1.47-.82,5.69,5.69,0,0,1,2-.33,6.86,6.86,0,0,1,1.62.19,3.89,3.89,0,0,1,1.36.61,3.07,3.07,0,0,1,.94,1.1,3.55,3.55,0,0,1,.35,1.64,3.63,3.63,0,0,1-.2,1.14,3.52,3.52,0,0,1-.64,1.13,4.78,4.78,0,0,1-1.16,1,5.67,5.67,0,0,1-1.74.68,6.07,6.07,0,0,1,1.78.4,4.07,4.07,0,0,1,1.29.82,3.35,3.35,0,0,1,.79,1.15,3.61,3.61,0,0,1,.27,1.39,4.38,4.38,0,0,1-.85,2.65,4.7,4.7,0,0,1-.93,1,5.62,5.62,0,0,1-1.17.69,6.64,6.64,0,0,1-1.33.42,6.81,6.81,0,0,1-1.4.15,6.37,6.37,0,0,1-2-.28,4.69,4.69,0,0,1-1.41-.71,3,3,0,0,1-.84-1,2.27,2.27,0,0,1-.28-1.05,1.29,1.29,0,0,1,.3-0.89,1,1,0,0,1,.78-0.34,1,1,0,0,1,.41.09,1,1,0,0,1,.31.22,1,1,0,0,1,.2.31,1,1,0,0,1,.07.37,1.73,1.73,0,0,1-.06.44A1.18,1.18,0,0,1,543.48,925.86Z" transform="translate(-4.54 -1.11)" style="fill:#565656"/></svg>